<?xml version="1.0" encoding="UTF-8" standalone="no"?><!DOCTYPE svg PUBLIC "-//W3C//DTD SVG 1.1//EN" "http://www.w3.org/Graphics/SVG/1.1/DTD/svg11.dtd"><svg width="100%" height="100%" viewBox="0 0 1001 1001" version="1.1" xmlns="http://www.w3.org/2000/svg" xmlns:xlink="http://www.w3.org/1999/xlink" xml:space="preserve" xmlns:serif="http://www.serif.com/" style="fill-rule:evenodd;clip-rule:evenodd;stroke-linejoin:round;stroke-miterlimit:2;"><rect id="logo-color-outline" x="0.266" y="0.091" width="1000" height="1000" style="fill:none;"/><g><path d="M79.626,769.256l-0,-19.454c10.572,-1.052 19.476,-4.733 26.71,-11.042c7.234,-6.31 13.633,-15.949 19.197,-28.919c1.67,-4.206 10.434,-31.372 26.293,-81.498l177.37,-588.365l16.277,-0l140.227,459.545l154.416,-459.545l15.442,-0l186.135,582.055c18.919,58.539 32.135,93.942 39.647,106.211c7.512,12.269 20.172,19.454 37.978,21.558l0,19.454l-245.397,0l0,-19.454c19.754,-0.701 32.901,-4.47 39.439,-11.305c6.538,-6.835 9.807,-15.336 9.807,-25.501c0,-13.32 -6.816,-41.538 -20.449,-84.653l-111.013,-345.974l-88.894,270.259l23.371,75.715c12.798,41.362 22.676,68.967 29.631,82.813c6.956,13.846 14.955,23.748 23.997,29.707c9.043,5.959 22.328,8.939 39.857,8.939l-0,19.454l-274.194,0l-0,-19.454c19.198,-0.351 32.97,-2.279 41.317,-5.784c5.842,-2.454 10.433,-6.573 13.772,-12.356c3.339,-5.784 5.008,-12.357 5.008,-19.718c0,-8.062 -6.26,-32.774 -18.78,-74.137l-103.084,-337.561l-92.232,305.488c-9.738,31.547 -15.72,53.105 -17.946,64.672c-2.226,11.568 -3.339,22.259 -3.339,32.074c0,14.372 3.895,25.676 11.686,33.914c7.79,8.237 22.675,12.707 44.655,13.408l0,19.454l-146.904,0Z" style="fill:#003c56;fill-rule:nonzero;"/><path d="M500.266,0.091c275.958,-0 500,224.042 500,500c0,275.957 -224.042,500 -500,500c-275.957,-0 -500,-224.043 -500,-500c0,-275.958 224.043,-500 500,-500Zm0,41.666c252.961,0 458.334,205.373 458.334,458.334c-0,252.961 -205.373,458.333 -458.334,458.333c-252.961,0 -458.333,-205.372 -458.333,-458.333c-0,-252.961 205.372,-458.334 458.333,-458.334Z" style="fill:#003c56;"/></g></svg>